<svg xmlns="http://www.w3.org/2000/svg" xmlns:xlink="http://www.w3.org/1999/xlink" viewBox="0 0 1027.4 373.86"><defs><style>.cls-1{fill:url(#linear-gradient);}.cls-2{fill:url(#linear-gradient-2);}.cls-3{fill:url(#linear-gradient-3);}.cls-4{fill:url(#linear-gradient-4);}.cls-5{fill:#262626;}</style><linearGradient id="linear-gradient" x1="59.04" y1="304.74" x2="471.6" y2="34.74" gradientUnits="userSpaceOnUse"><stop offset="0.01" stop-color="#136aaf"/><stop offset="1" stop-color="#3fedee"/></linearGradient><linearGradient id="linear-gradient-2" x1="16.81" y1="240.21" x2="429.37" y2="-29.79" xlink:href="#linear-gradient"/><linearGradient id="linear-gradient-3" x1="68.54" y1="319.26" x2="481.1" y2="49.26" xlink:href="#linear-gradient"/><linearGradient id="linear-gradient-4" x1="99.54" y1="366.62" x2="512.1" y2="96.62" xlink:href="#linear-gradient"/></defs><title>Asset 3</title><g id="Layer_2" data-name="Layer 2"><g id="Layer_1-2" data-name="Layer 1"><path class="cls-1" d="M167.73,0a59.94,59.94,0,0,0-59.87,59.87V98.72H65.36A65.43,65.43,0,0,0,0,164.08V308.5a65.43,65.43,0,0,0,63.43,65.31v.05H305.76a75.5,75.5,0,0,0,75.41-75.41V0ZM65.36,121.57h42.5v68.56h-85v-26A42.56,42.56,0,0,1,65.36,121.57ZM22.85,308.5V215h85V308.5a42.51,42.51,0,1,1-85,0Zm335.47-10.05A52.62,52.62,0,0,1,305.76,351H114.94a65.06,65.06,0,0,0,15.77-42.51V59.87a37.07,37.07,0,0,1,37-37H358.32Z"/><path class="cls-2" d="M191.3,142.8H237a8.89,8.89,0,0,0,8.89-8.89V88.21A8.89,8.89,0,0,0,237,79.32H191.3a8.89,8.89,0,0,0-8.89,8.89v45.7A8.89,8.89,0,0,0,191.3,142.8Zm8.88-45.7h27.93V125H200.18Z"/><path class="cls-3" d="M184.19,215H304.24a10.67,10.67,0,0,0,0-21.33h-120a10.67,10.67,0,1,0,0,21.33Z"/><rect class="cls-4" x="173.52" y="261.28" width="141.38" height="21.33" rx="10.66"/><path class="cls-5" d="M470.65,143.45Q458.5,131,458.5,105.2t12.15-38.26Q482.79,54.55,508,54.54h38.14V72.27H512.36q-12.06,0-19,3.2a19.41,19.41,0,0,0-10,10.32q-3.06,7.11-3.06,19.41t3.06,19.4a19.41,19.41,0,0,0,10,10.32q6.93,3.2,19,3.2h17.73V113.76H505.21V96.18H550.8v59.67H508Q482.79,155.85,470.65,143.45Z"/><path class="cls-5" d="M614.94,138.12q6.18,0,9.27-3T627.3,126q0-6.18-3-9.2t-9.31-3H597.58q-29.79,0-29.8-29.79,0-14.84,7.42-22.13t22.38-7.3H645V72.27H601.68q-12.07,0-12.07,11.84,0,5.9,3,8.91t8.9,3h17.21q14.89,0,22.64,7.56T649.13,126q0,14.82-7.71,22.35t-22.53,7.52H570.24V138.12Z"/><path class="cls-5" d="M657.1,72.27V54.54h86.56V72.27H710.81v83.58H690.1V72.27Z"/><path class="cls-5" d="M518.77,209.54q13.56,0,21.19,6.89t7.64,20q0,11.4-4.88,16.32t-10,6.11a22.78,22.78,0,0,1,8.57,3.24,21.71,21.71,0,0,1,7.52,8.08Q552,275.61,552,284q0,13.41-7.93,20.12t-22.24,6.7h-58.1V209.54Zm-5.22,41.2q6.27,0,9.32-2.91t3-9q0-6.1-3-9T513.55,227H484.43v23.77Zm3.88,42.75q6.33,0,9.57-3.16t3.24-9.5q0-12.66-12.81-12.66h-33v25.32Z"/><path class="cls-5" d="M590.8,209.54V310.85H570.09V209.54Z"/><path class="cls-5" d="M623.36,301.17q-9.69-9.69-9.69-29.2V209.54h20.71v59.82q0,8.86,2.31,14a14.34,14.34,0,0,0,7.45,7.45q5.13,2.31,14.08,2.31h25.92v17.73H652.56Q633,310.85,623.36,301.17Z"/><path class="cls-5" d="M708.57,301.17q-9.68-9.69-9.68-29.2V209.54H719.6v59.82q0,8.86,2.31,14a14.34,14.34,0,0,0,7.45,7.45q5.13,2.31,14.08,2.31h25.92v17.73H737.78Q718.25,310.85,708.57,301.17Z"/><path class="cls-5" d="M805.27,209.54V310.85H784.56V209.54Z"/><path class="cls-5" d="M848.4,310.85H828.58V209.54H855.1l42.09,73.82V209.54H917V310.85H891.23L848.4,235.47Z"/><path class="cls-5" d="M947.25,298.45Q935.1,286,935.1,260.2t12.15-38.26q12.13-12.39,37.32-12.4h38.14v17.73H989q-12.06,0-19,3.2a19.41,19.41,0,0,0-10,10.32q-3.06,7.11-3.06,19.41T960,279.6a19.41,19.41,0,0,0,10,10.32q6.93,3.19,19,3.2h17.73V268.76H981.81V251.18h45.59v59.67H984.57Q959.39,310.85,947.25,298.45Z"/></g></g></svg>